{"title":"Kabali - (2016) - HINDI - 1CD Rip - CAMRip - x264 -","uid":15393242,"size":732314522,"categoryP":"video","categoryS":"movies","magnet":"?xt=urn:btih:fadfd8c67e532a4aa3f8b2126724599e3bb0d1e8&amp;dn=Kabali+-+%282016%29+-+HINDI+-+1CD+Rip+-+CAMRip+-+x264+-&amp;tr=udp%3A%2F%2Ftracker.leechers-paradise.org%3A6969&amp;tr=udp%3A%2F%2Fzer0day.ch%3A1337&amp;tr=udp%3A%2F%2Fopen.demonii.com%3A1337&amp;tr=udp%3A%2F%2Ftracker.coppersurfer.tk%3A6969&amp;tr=udp%3A%2F%2Fexodus.desync.com%3A6969","seeders":13,"leechers":0,"uploader":"makintos13","files":1,"time":1469367047,"description":"Kabali - (2016) - HINDI - 1CD Rip - CAMRip - x264 - AAC - Makintos13\r\n\r\nScreens:\r\n \nhttps://imgmak.com/TL2\r\n \nhttps://imgmak.com/TLF\r\n \nhttps://imgmak.com/TLi\r\n \nhttps://imgmak.com/TLj\r\n \nhttps://imgmak.com/TLw\r\n \nhttps://imgmak.com/TLJ\r\n \nhttps://imgmak.com/TLW\r\n \nhttps://imgmak.com/TLd\r\n\r\nFormat : Matroska\r\nFormat version : Version 4 / Version 2\r\nFile size : 698 MiB\r\nDuration : 2h 15mn\r\nOverall bit rate : 720 Kbps\r\n\r\nVideo\r\nID : 2\r\nFormat : AVC\r\nFormat/Info : Advanced Video Codec\r\nFormat profile :   \r\nFormat settings, CABAC : Yes\r\nFormat settings, ReFrames : 4 frames\r\nCodec ID : V_MPEG4/ISO/AVC\r\nDuration : 2h 15mn\r\nBit rate : 654 Kbps\r\nWidth : 640 pixels\r\nHeight : 272 pixels\r\nDisplay aspect ratio : 2.35:1\r\nFrame rate mode : Constant\r\nFrame rate : 23.976 (24000/1001) fps\r\nColor space : YUV\r\nChroma subsampling : 4:2:0\r\nBit depth : 8 bits\r\nScan type : Progressive\r\nBits/(Pixel*Frame) : 0.157\r\nStream size : 634 MiB (91%)\r\nDefault : Yes\r\nForced : No\r\n\r\nAudio\r\nID : 1\r\nFormat : AAC\r\nFormat/Info : Advanced Audio Codec\r\nFormat profile : LC\r\nCodec ID : A_AAC\r\nDuration : 2h 15mn\r\nBit rate : 64.1 Kbps\r\nChannel(s) : 2 channels\r\nChannel positions : Front: L R\r\nSampling rate : 48.0 KHz\r\nFrame rate : 46.875 fps (1024 spf)\r\nCompression mode : Lossy\r\nDelay relative to video : 62ms\r\nStream size : 62.2 MiB (9%)\r\nTitle : Stereo\r\nDefault : Yes\r\nForced : No\r\n\r\n\r\nSource : Nara (Thanks bro:D)","torrent":{"xt":"urn:btih:fadfd8c67e532a4aa3f8b2126724599e3bb0d1e8","amp;dn":"Kabali+-+%282016%29+-+HINDI+-+1CD+Rip+-+CAMRip+-+x264+-","amp;tr":["udp%3A%2F%2Ftracker.leechers-paradise.org%3A6969","udp%3A%2F%2Fzer0day.ch%3A1337","udp%3A%2F%2Fopen.demonii.com%3A1337","udp%3A%2F%2Ftracker.coppersurfer.tk%3A6969","udp%3A%2F%2Fexodus.desync.com%3A6969"],"infoHash":"fadfd8c67e532a4aa3f8b2126724599e3bb0d1e8","infoHashBuffer":{"type":"Buffer","data":[250,223,216,198,126,83,42,74,163,248,178,18,103,36,89,158,59,176,209,232]},"announce":[],"urlList":[]}}